<?xml version="1.0" encoding="utf-8" standalone="no"?>
<!DOCTYPE svg PUBLIC "-//W3C//DTD SVG 1.1//EN"
  "http://www.w3.org/Graphics/SVG/1.1/DTD/svg11.dtd">
<svg xmlns:xlink="http://www.w3.org/1999/xlink" width="921.6pt" height="619.2pt" viewBox="0 0 921.6 619.2" xmlns="http://www.w3.org/2000/svg" version="1.1">
 <title>Graphical abstract of the shortcut-learning diagnostic</title>
 <metadata>
  <rdf:RDF xmlns:dc="http://purl.org/dc/elements/1.1/" xmlns:cc="http://creativecommons.org/ns#" xmlns:rdf="http://www.w3.org/1999/02/22-rdf-syntax-ns#">
   <cc:Work>
    <dc:type rdf:resource="http://purl.org/dc/dcmitype/StillImage"/>
    <dc:title>Graphical abstract of the shortcut-learning diagnostic</dc:title>
    <dc:format>image/svg+xml</dc:format>
    <dc:creator>
     <cc:Agent>
      <dc:title>Matplotlib</dc:title>
     </cc:Agent>
    </dc:creator>
   </cc:Work>
  </rdf:RDF>
 </metadata>
 <defs>
  <style type="text/css">*{stroke-linejoin: round; stroke-linecap: butt}</style>
 </defs>
 <g id="figure_1">
  <g id="patch_1">
   <path d="M 0 619.2
L 921.6 619.2
L 921.6 0
L 0 0
z
" style="fill: #071c26"/>
  </g>
  <g id="axes_1">
   <g id="patch_2">
    <path d="M 34.0992 179.568
L 279.2448 179.568
Q 290.304 179.568 290.304 172.1376
L 290.304 81.7344
Q 290.304 74.304 279.2448 74.304
L 34.0992 74.304
Q 23.04 74.304 23.04 81.7344
L 23.04 172.1376
Q 23.04 179.568 34.0992 179.568
z
" clip-path="url(#p5faae8c235)" style="fill: #102d38; stroke: #43b7c3; stroke-width: 1.5; stroke-linejoin: miter"/>
   </g>
   <g id="patch_3">
    <path d="M 47.0016 162.2304
L 46.08 162.2304
Q 49.7664 162.2304 49.7664 159.7536
L 49.7664 94.1184
Q 49.7664 91.6416 46.08 91.6416
L 47.0016 91.6416
Q 43.3152 91.6416 43.3152 94.1184
L 43.3152 159.7536
Q 43.3152 162.2304 47.0016 162.2304
z
" clip-path="url(#p5faae8c235)" style="fill: #43b7c3"/>
   </g>
   <g id="patch_4">
    <path d="M 338.2272 179.568
L 583.3728 179.568
Q 594.432 179.568 594.432 172.1376
L 594.432 81.7344
Q 594.432 74.304 583.3728 74.304
L 338.2272 74.304
Q 327.168 74.304 327.168 81.7344
L 327.168 172.1376
Q 327.168 179.568 338.2272 179.568
z
" clip-path="url(#p5faae8c235)" style="fill: #102d38; stroke: #6e95ce; stroke-width: 1.5; stroke-linejoin: miter"/>
   </g>
   <g id="patch_5">
    <path d="M 351.1296 162.2304
L 350.208 162.2304
Q 353.8944 162.2304 353.8944 159.7536
L 353.8944 94.1184
Q 353.8944 91.6416 350.208 91.6416
L 351.1296 91.6416
Q 347.4432 91.6416 347.4432 94.1184
L 347.4432 159.7536
Q 347.4432 162.2304 351.1296 162.2304
z
" clip-path="url(#p5faae8c235)" style="fill: #6e95ce"/>
   </g>
   <g id="patch_6">
    <path d="M 642.3552 179.568
L 887.5008 179.568
Q 898.56 179.568 898.56 172.1376
L 898.56 81.7344
Q 898.56 74.304 887.5008 74.304
L 642.3552 74.304
Q 631.296 74.304 631.296 81.7344
L 631.296 172.1376
Q 631.296 179.568 642.3552 179.568
z
" clip-path="url(#p5faae8c235)" style="fill: #102d38; stroke: #d86661; stroke-width: 1.5; stroke-linejoin: miter"/>
   </g>
   <g id="patch_7">
    <path d="M 655.2576 162.2304
L 654.336 162.2304
Q 658.0224 162.2304 658.0224 159.7536
L 658.0224 94.1184
Q 658.0224 91.6416 654.336 91.6416
L 655.2576 91.6416
Q 651.5712 91.6416 651.5712 94.1184
L 651.5712 159.7536
Q 651.5712 162.2304 655.2576 162.2304
z
" clip-path="url(#p5faae8c235)" style="fill: #d86661"/>
   </g>
   <g id="patch_8">
    <path d="M 283.8528 126.936
Q 307.8144 126.936 330.266654 126.936
" clip-path="url(#p5faae8c235)" style="fill: none; opacity: 0.95; stroke: #6e95ce; stroke-width: 1.35; stroke-linecap: round"/>
    <path d="M 325.466654 124.536
L 330.266654 126.936
L 325.466654 129.336
z
" clip-path="url(#p5faae8c235)" style="fill: #6e95ce; opacity: 0.95; stroke: #6e95ce; stroke-width: 1.35; stroke-linecap: round"/>
   </g>
   <g id="patch_9">
    <path d="M 587.9808 126.936
Q 611.9424 126.936 634.394654 126.936
" clip-path="url(#p5faae8c235)" style="fill: none; opacity: 0.95; stroke: #6e95ce; stroke-width: 1.35; stroke-linecap: round"/>
    <path d="M 629.594654 124.536
L 634.394654 126.936
L 629.594654 129.336
z
" clip-path="url(#p5faae8c235)" style="fill: #6e95ce; opacity: 0.95; stroke: #6e95ce; stroke-width: 1.35; stroke-linecap: round"/>
   </g>
   <g id="patch_10">
    <path d="M 34.0992 359.136
L 288.4608 359.136
Q 299.52 359.136 299.52 351.7056
L 299.52 255.1104
Q 299.52 247.68 288.4608 247.68
L 34.0992 247.68
Q 23.04 247.68 23.04 255.1104
L 23.04 351.7056
Q 23.04 359.136 34.0992 359.136
z
" clip-path="url(#p5faae8c235)" style="fill: #102d38; stroke: #e0aa3e; stroke-width: 1.5; stroke-linejoin: miter"/>
   </g>
   <g id="patch_11">
    <path d="M 47.0016 341.7984
L 46.08 341.7984
Q 49.7664 341.7984 49.7664 339.3216
L 49.7664 267.4944
Q 49.7664 265.0176 46.08 265.0176
L 47.0016 265.0176
Q 43.3152 265.0176 43.3152 267.4944
L 43.3152 339.3216
Q 43.3152 341.7984 47.0016 341.7984
z
" clip-path="url(#p5faae8c235)" style="fill: #e0aa3e"/>
   </g>
   <g id="patch_12">
    <path d="M 333.6192 359.136
L 587.9808 359.136
Q 599.04 359.136 599.04 351.7056
L 599.04 255.1104
Q 599.04 247.68 587.9808 247.68
L 333.6192 247.68
Q 322.56 247.68 322.56 255.1104
L 322.56 351.7056
Q 322.56 359.136 333.6192 359.136
z
" clip-path="url(#p5faae8c235)" style="fill: #102d38; stroke: #43b7c3; stroke-width: 1.5; stroke-linejoin: miter"/>
   </g>
   <g id="patch_13">
    <path d="M 346.5216 341.7984
L 345.6 341.7984
Q 349.2864 341.7984 349.2864 339.3216
L 349.2864 267.4944
Q 349.2864 265.0176 345.6 265.0176
L 346.5216 265.0176
Q 342.8352 265.0176 342.8352 267.4944
L 342.8352 339.3216
Q 342.8352 341.7984 346.5216 341.7984
z
" clip-path="url(#p5faae8c235)" style="fill: #43b7c3"/>
   </g>
   <g id="patch_14">
    <path d="M 633.1392 359.136
L 887.5008 359.136
Q 898.56 359.136 898.56 351.7056
L 898.56 255.1104
Q 898.56 247.68 887.5008 247.68
L 633.1392 247.68
Q 622.08 247.68 622.08 255.1104
L 622.08 351.7056
Q 622.08 359.136 633.1392 359.136
z
" clip-path="url(#p5faae8c235)" style="fill: #102d38; stroke: #d86661; stroke-width: 1.5; stroke-linejoin: miter"/>
   </g>
   <g id="patch_15">
    <path d="M 646.0416 341.7984
L 645.12 341.7984
Q 648.8064 341.7984 648.8064 339.3216
L 648.8064 267.4944
Q 648.8064 265.0176 645.12 265.0176
L 646.0416 265.0176
Q 642.3552 265.0176 642.3552 267.4944
L 642.3552 339.3216
Q 642.3552 341.7984 646.0416 341.7984
z
" clip-path="url(#p5faae8c235)" style="fill: #d86661"/>
   </g>
   <g id="patch_16">
    <path d="M 161.28 229.104
Q 161.28 239.94 161.28 249.266654
" clip-path="url(#p5faae8c235)" style="fill: none; opacity: 0.95; stroke: #d86661; stroke-width: 1.35; stroke-linecap: round"/>
    <path d="M 163.68 244.466654
L 161.28 249.266654
L 158.88 244.466654
z
" clip-path="url(#p5faae8c235)" style="fill: #d86661; opacity: 0.95; stroke: #d86661; stroke-width: 1.35; stroke-linecap: round"/>
   </g>
   <g id="patch_17">
    <path d="M 460.8 229.104
Q 460.8 239.94 460.8 249.266654
" clip-path="url(#p5faae8c235)" style="fill: none; opacity: 0.95; stroke: #d86661; stroke-width: 1.35; stroke-linecap: round"/>
    <path d="M 463.2 244.466654
L 460.8 249.266654
L 458.4 244.466654
z
" clip-path="url(#p5faae8c235)" style="fill: #d86661; opacity: 0.95; stroke: #d86661; stroke-width: 1.35; stroke-linecap: round"/>
   </g>
   <g id="patch_18">
    <path d="M 760.32 229.104
Q 760.32 239.94 760.32 249.266654
" clip-path="url(#p5faae8c235)" style="fill: none; opacity: 0.95; stroke: #d86661; stroke-width: 1.35; stroke-linecap: round"/>
    <path d="M 762.72 244.466654
L 760.32 249.266654
L 757.92 244.466654
z
" clip-path="url(#p5faae8c235)" style="fill: #d86661; opacity: 0.95; stroke: #d86661; stroke-width: 1.35; stroke-linecap: round"/>
   </g>
   <g id="patch_19">
    <path d="M 161.28 352.944
Q 161.28 370.9008 161.28 387.348254
" clip-path="url(#p5faae8c235)" style="fill: none; opacity: 0.95; stroke: #abc0c7; stroke-width: 1.35; stroke-linecap: round"/>
    <path d="M 163.68 382.548254
L 161.28 387.348254
L 158.88 382.548254
z
" clip-path="url(#p5faae8c235)" style="fill: #abc0c7; opacity: 0.95; stroke: #abc0c7; stroke-width: 1.35; stroke-linecap: round"/>
   </g>
   <g id="patch_20">
    <path d="M 460.8 352.944
Q 460.8 370.9008 460.8 387.348254
" clip-path="url(#p5faae8c235)" style="fill: none; opacity: 0.95; stroke: #abc0c7; stroke-width: 1.35; stroke-linecap: round"/>
    <path d="M 463.2 382.548254
L 460.8 387.348254
L 458.4 382.548254
z
" clip-path="url(#p5faae8c235)" style="fill: #abc0c7; opacity: 0.95; stroke: #abc0c7; stroke-width: 1.35; stroke-linecap: round"/>
   </g>
   <g id="patch_21">
    <path d="M 760.32 352.944
Q 760.32 370.9008 760.32 387.348254
" clip-path="url(#p5faae8c235)" style="fill: none; opacity: 0.95; stroke: #abc0c7; stroke-width: 1.35; stroke-linecap: round"/>
    <path d="M 762.72 382.548254
L 760.32 387.348254
L 757.92 382.548254
z
" clip-path="url(#p5faae8c235)" style="fill: #abc0c7; opacity: 0.95; stroke: #abc0c7; stroke-width: 1.35; stroke-linecap: round"/>
   </g>
   <g id="patch_22">
    <path d="M 176.9472 501.552
L 744.6528 501.552
Q 755.712 501.552 755.712 494.1216
L 755.712 425.3904
Q 755.712 417.96 744.6528 417.96
L 176.9472 417.96
Q 165.888 417.96 165.888 425.3904
L 165.888 494.1216
Q 165.888 501.552 176.9472 501.552
z
" clip-path="url(#p5faae8c235)" style="fill: #102d38; stroke: #6e95ce; stroke-width: 1.5; stroke-linejoin: miter"/>
   </g>
   <g id="patch_23">
    <path d="M 189.8496 484.2144
L 188.928 484.2144
Q 192.6144 484.2144 192.6144 481.7376
L 192.6144 437.7744
Q 192.6144 435.2976 188.928 435.2976
L 189.8496 435.2976
Q 186.1632 435.2976 186.1632 437.7744
L 186.1632 481.7376
Q 186.1632 484.2144 189.8496 484.2144
z
" clip-path="url(#p5faae8c235)" style="fill: #6e95ce"/>
   </g>
   <g id="patch_24">
    <path d="M 130.8672 597.528
L 790.7328 597.528
Q 801.792 597.528 801.792 590.0976
L 801.792 518.2704
Q 801.792 510.84 790.7328 510.84
L 130.8672 510.84
Q 119.808 510.84 119.808 518.2704
L 119.808 590.0976
Q 119.808 597.528 130.8672 597.528
z
" clip-path="url(#p5faae8c235)" style="fill: #102d38; stroke: #f4f8f9; stroke-width: 1.5; stroke-linejoin: miter"/>
   </g>
   <g id="patch_25">
    <path d="M 143.7696 580.1904
L 142.848 580.1904
Q 146.5344 580.1904 146.5344 577.7136
L 146.5344 530.6544
Q 146.5344 528.1776 142.848 528.1776
L 143.7696 528.1776
Q 140.0832 528.1776 140.0832 530.6544
L 140.0832 577.7136
Q 140.0832 580.1904 143.7696 580.1904
z
" clip-path="url(#p5faae8c235)" style="fill: #f4f8f9"/>
   </g>
   <g id="patch_26">
    <path d="M 460.8 396.288
Q 460.8 408.672 460.8 419.546654
" clip-path="url(#p5faae8c235)" style="fill: none; opacity: 0.95; stroke: #6e95ce; stroke-width: 1.35; stroke-linecap: round"/>
    <path d="M 463.2 414.746654
L 460.8 419.546654
L 458.4 414.746654
z
" clip-path="url(#p5faae8c235)" style="fill: #6e95ce; opacity: 0.95; stroke: #6e95ce; stroke-width: 1.35; stroke-linecap: round"/>
   </g>
   <g id="patch_27">
    <path d="M 460.8 498.456
Q 460.8 510.84 460.8 521.714654
" clip-path="url(#p5faae8c235)" style="fill: none; opacity: 0.95; stroke: #6e95ce; stroke-width: 1.35; stroke-linecap: round"/>
    <path d="M 463.2 516.914654
L 460.8 521.714654
L 458.4 516.914654
z
" clip-path="url(#p5faae8c235)" style="fill: #6e95ce; opacity: 0.95; stroke: #6e95ce; stroke-width: 1.35; stroke-linecap: round"/>
   </g>
   <g id="line2d_1">
    <path d="M 764.928 176.472
L 764.928 229.104
" clip-path="url(#p5faae8c235)" style="fill: none; stroke: #d86661; stroke-width: 1.5; stroke-linecap: square"/>
   </g>
   <g id="line2d_2">
    <path d="M 161.28 229.104
L 764.928 229.104
" clip-path="url(#p5faae8c235)" style="fill: none; stroke: #d86661; stroke-width: 1.5; stroke-linecap: square"/>
   </g>
   <g id="line2d_3">
    <path d="M 161.28 393.192
L 760.32 393.192
" clip-path="url(#p5faae8c235)" style="fill: none; stroke: #abc0c7; stroke-opacity: 0.9; stroke-width: 1.35; stroke-linecap: square"/>
   </g>
   <g id="text_1">
    <text style="font-weight: 700; font-size: 25px; font-family: 'DejaVu Sans'; text-anchor: start; fill: #f4f8f9" x="36.864" y="40.668094" transform="rotate(-0 36.864 40.668094)">When does pooled forecasting measure temporal skill?</text>
   </g>
   <g id="text_2">
    <text style="font-size: 12.8px; font-family: 'DejaVu Sans'; text-anchor: start; fill: #abc0c7" x="36.864" y="62.358" transform="rotate(-0 36.864 62.358)">One apparent result, three adversarial checks, one controlled mechanism test</text>
   </g>
   <g id="text_3">
    <text style="font-weight: 700; font-size: 11.4px; font-family: 'DejaVu Sans'; text-anchor: start; fill: #43b7c3" x="59.904" y="106.494928" transform="rotate(-0 59.904 106.494928)">MULTI-ASSET INPUT</text>
   </g>
   <g id="text_4">
    <text style="font-size: 10.4px; font-family: 'DejaVu Sans'; text-anchor: start; fill: #f4f8f9" x="59.904" y="129.884775" transform="rotate(-0 59.904 129.884775)">79 instruments / 6 families</text>
   </g>
   <g id="text_5">
    <text style="font-size: 10.4px; font-family: 'DejaVu Sans'; text-anchor: start; fill: #f4f8f9" x="59.904" y="149.079975" transform="rotate(-0 59.904 149.079975)">60 sessions / 34 channels</text>
   </g>
   <g id="text_6">
    <text style="font-size: 10.4px; font-family: 'DejaVu Sans'; text-anchor: start; fill: #f4f8f9" x="59.904" y="168.275175" transform="rotate(-0 59.904 168.275175)">+ learned asset identity</text>
   </g>
   <g id="text_7">
    <text style="font-weight: 700; font-size: 11.4px; font-family: 'DejaVu Sans'; text-anchor: start; fill: #6e95ce" x="364.032" y="106.494928" transform="rotate(-0 364.032 106.494928)">TRANSFORMER</text>
   </g>
   <g id="text_8">
    <text style="font-size: 10.4px; font-family: 'DejaVu Sans'; text-anchor: start; fill: #f4f8f9" x="364.032" y="129.884775" transform="rotate(-0 364.032 129.884775)">2-layer encoder</text>
   </g>
   <g id="text_9">
    <text style="font-size: 10.4px; font-family: 'DejaVu Sans'; text-anchor: start; fill: #f4f8f9" x="364.032" y="149.079163" transform="rotate(-0 364.032 149.079163)">272,449 parameters</text>
   </g>
   <g id="text_10">
    <text style="font-weight: 700; font-size: 11.4px; font-family: 'DejaVu Sans'; text-anchor: start; fill: #d86661" x="668.16" y="106.494928" transform="rotate(-0 668.16 106.494928)">POOLED RESULT</text>
   </g>
   <g id="text_11">
    <text style="font-size: 10.4px; font-family: 'DejaVu Sans'; text-anchor: start; fill: #f4f8f9" x="668.16" y="129.883963" transform="rotate(-0 668.16 129.883963)">ROC-AUC  0.790</text>
   </g>
   <g id="text_12">
    <text style="font-size: 10.4px; font-family: 'DejaVu Sans'; text-anchor: start; fill: #f4f8f9" x="668.16" y="149.079163" transform="rotate(-0 668.16 149.079163)">PR-AUC  0.421</text>
   </g>
   <g id="text_13">
    <text style="font-weight: 700; font-size: 11.8px; font-family: 'DejaVu Sans'; text-anchor: start; fill: #abc0c7" x="32.256" y="216.689234" transform="rotate(-0 32.256 216.689234)">CHALLENGE / DIAGNOSE</text>
   </g>
   <g id="text_14">
    <text style="font-weight: 700; font-size: 11.4px; font-family: 'DejaVu Sans'; text-anchor: start; fill: #e0aa3e" x="59.904" y="279.870928" transform="rotate(-0 59.904 279.870928)">STATIC PRIOR</text>
   </g>
   <g id="text_15">
    <text style="font-size: 10.4px; font-family: 'DejaVu Sans'; text-anchor: start; fill: #f4f8f9" x="59.904" y="303.260775" transform="rotate(-0 59.904 303.260775)">Pooled AUC  0.824</text>
   </g>
   <g id="text_16">
    <text style="font-size: 10.4px; font-family: 'DejaVu Sans'; text-anchor: start; fill: #f4f8f9" x="59.904" y="322.455975" transform="rotate(-0 59.904 322.455975)">Constant through time</text>
   </g>
   <g id="text_17">
    <text style="font-weight: 700; font-size: 11.4px; font-family: 'DejaVu Sans'; text-anchor: start; fill: #43b7c3" x="359.424" y="279.870928" transform="rotate(-0 359.424 279.870928)">WITHIN-ASSET TEST</text>
   </g>
   <g id="text_18">
    <text style="font-size: 10.4px; font-family: 'DejaVu Sans'; text-anchor: start; fill: #f4f8f9" x="359.424" y="303.260775" transform="rotate(-0 359.424 303.260775)">Transformer AUC  0.492</text>
   </g>
   <g id="text_19">
    <text style="font-size: 10.4px; font-family: 'DejaVu Sans'; text-anchor: start; fill: #f4f8f9" x="359.424" y="322.455975" transform="rotate(-0 359.424 322.455975)">Approximately chance</text>
   </g>
   <g id="text_20">
    <text style="font-weight: 700; font-size: 11.4px; font-family: 'DejaVu Sans'; text-anchor: start; fill: #d86661" x="658.944" y="279.870928" transform="rotate(-0 658.944 279.870928)">IDENTITY + ORDER</text>
   </g>
   <g id="text_21">
    <text style="font-size: 10.4px; font-family: 'DejaVu Sans'; text-anchor: start; fill: #f4f8f9" x="658.944" y="303.260775" transform="rotate(-0 658.944 303.260775)">No-ID pooled AUC  0.715</text>
   </g>
   <g id="text_22">
    <text style="font-size: 10.4px; font-family: 'DejaVu Sans'; text-anchor: start; fill: #f4f8f9" x="658.944" y="322.455975" transform="rotate(-0 658.944 322.455975)">Largest order change  0.0014</text>
   </g>
   <g id="text_23">
    <text style="font-weight: 700; font-size: 11.4px; font-family: 'DejaVu Sans'; text-anchor: start; fill: #6e95ce" x="202.752" y="450.150928" transform="rotate(-0 202.752 450.150928)">CONTROLLED SIMULATION</text>
   </g>
   <g id="text_24">
    <text style="font-size: 10.4px; font-family: 'DejaVu Sans'; text-anchor: start; fill: #f4f8f9" x="202.752" y="473.540775" transform="rotate(-0 202.752 473.540775)">1,040 registered runs</text>
   </g>
   <g id="text_25">
    <text style="font-size: 10.4px; font-family: 'DejaVu Sans'; text-anchor: start; fill: #f4f8f9" x="202.752" y="492.735975" transform="rotate(-0 202.752 492.735975)">Static heterogeneity vs planted ordered signal</text>
   </g>
   <g id="text_26">
    <text style="font-weight: 700; font-size: 11.4px; font-family: 'DejaVu Sans'; text-anchor: start; fill: #f4f8f9" x="156.672" y="543.030928" transform="rotate(-0 156.672 543.030928)">CONCLUSION</text>
   </g>
   <g id="text_27">
    <text style="font-size: 10.4px; font-family: 'DejaVu Sans'; text-anchor: start; fill: #f4f8f9" x="156.672" y="566.420775" transform="rotate(-0 156.672 566.420775)">Strong pooled discrimination did not establish</text>
   </g>
   <g id="text_28">
    <text style="font-size: 10.4px; font-family: 'DejaVu Sans'; text-anchor: start; fill: #f4f8f9" x="156.672" y="585.615975" transform="rotate(-0 156.672 585.615975)">robust temporal forecasting skill</text>
   </g>
  </g>
 </g>
 <defs>
  <clipPath id="p5faae8c235">
   <rect x="0" y="0" width="921.6" height="619.2"/>
  </clipPath>
 </defs>
</svg>
